<svg id="Layer_1" data-name="Layer 1" xmlns="http://www.w3.org/2000/svg" viewBox="0 0 512 512"><defs><style>.cls-1{fill:#d32323;}</style></defs><title>star-outline</title><path class="cls-1" d="M458,210.41,312.73,197.93,256,64,199.26,197.93,54,210.41l110.19,95.52L131.16,448,256,372.69,380.83,448l-33-142.07ZM272.53,345.29l-16.53-10-16.53,10-60,36.19,15.88-68.3,4.37-18.79-14.58-12.64-53-45.94,69.83-6,19.21-1.65,7.52-17.75L256,146l27.27,64.37,7.52,17.76L310,229.82l69.84,6-53,45.94-14.58,12.64,4.37,18.79,15.87,68.3-60-36.19Z"/></svg>